<svg width="13" height="13" viewBox="0 0 13 13" fill="none" xmlns="http://www.w3.org/2000/svg">
<path d="M5.2002 12.1006C4.90625 12.1006 4.69434 11.9707 4.48926 11.7041L0.941406 7.18555C0.811523 7.02148 0.743164 6.84375 0.743164 6.68652C0.743164 6.31055 1.00977 6.04395 1.39941 6.04395C1.64551 6.04395 1.81641 6.13965 1.9873 6.37891L5.17285 10.5488L11.3115 0.766602C11.4756 0.506836 11.626 0.417969 11.8994 0.417969C12.2754 0.417969 12.5215 0.664062 12.5215 1.04004C12.5215 1.19727 12.4736 1.34766 12.3506 1.5459L5.89062 11.7178C5.72656 11.9707 5.49414 12.1006 5.2002 12.1006Z" fill="#83FFA6"/>
</svg>
