<svg xmlns="http://www.w3.org/2000/svg" fill="none" viewBox="0 0 31 31"><path fill="currentColor" d="M15.675 26.29a7.83 7.83 0 0 1-.433-.011c-.14 0-.282-.008-.422-.024l-.645 1.23a.641.641 0 0 1-.304.305.661.661 0 0 1-.446.059.7.7 0 0 1-.386-.211.866.866 0 0 1-.188-.41l-.21-1.348a9.784 9.784 0 0 1-.81-.27c-.257-.093-.519-.195-.785-.304l-.996.89a.808.808 0 0 1-.41.2.749.749 0 0 1-.469-.094.641.641 0 0 1-.28-.328.895.895 0 0 1-.024-.457l.258-1.324a18.807 18.807 0 0 1-.657-.516c-.218-.18-.43-.367-.632-.563l-1.231.516a.708.708 0 0 1-.469.047.777.777 0 0 1-.398-.27.751.751 0 0 1-.164-.398.764.764 0 0 1 .117-.445l.715-1.16a10.724 10.724 0 0 1-.445-.704c-.133-.25-.266-.503-.399-.761l-1.36.047a.697.697 0 0 1-.433-.094.637.637 0 0 1-.27-.375.673.673 0 0 1-.011-.445.782.782 0 0 1 .258-.364l1.054-.843c-.07-.274-.129-.547-.175-.82a7.752 7.752 0 0 1-.094-.868l-1.301-.41a.678.678 0 0 1-.375-.246.747.747 0 0 1-.129-.434c0-.172.043-.316.129-.433.086-.118.211-.2.375-.246l1.3-.41c.016-.298.048-.583.095-.856.046-.281.105-.559.175-.832l-1.054-.856a.715.715 0 0 1-.258-.351.638.638 0 0 1 .012-.434.59.59 0 0 1 .27-.363.657.657 0 0 1 .433-.106l1.36.036c.132-.258.265-.508.398-.75.14-.243.289-.485.445-.727l-.727-1.16a.74.74 0 0 1-.105-.422.751.751 0 0 1 .164-.398.709.709 0 0 1 .387-.258.754.754 0 0 1 .468.035l1.243.492c.203-.18.414-.36.632-.539.22-.187.438-.363.657-.527l-.258-1.313A.788.788 0 0 1 8.89 4.2a.588.588 0 0 1 .281-.316.706.706 0 0 1 .457-.094.71.71 0 0 1 .422.2l.996.867c.266-.102.528-.2.786-.293.265-.102.535-.192.808-.27l.211-1.336a.866.866 0 0 1 .188-.41.7.7 0 0 1 .386-.21.661.661 0 0 1 .446.058c.133.062.234.16.304.293l.645 1.23c.148-.015.289-.023.422-.023a7.82 7.82 0 0 1 .855 0c.14 0 .281.008.422.023l.656-1.23a.594.594 0 0 1 .293-.293c.14-.07.293-.09.457-.059a.7.7 0 0 1 .387.211c.11.11.172.246.188.41l.21 1.348c.266.07.532.156.797.258.266.093.528.191.785.293l1.008-.88a.677.677 0 0 1 .399-.187.73.73 0 0 1 .468.094c.133.07.227.176.282.316a.73.73 0 0 1 .035.47l-.27 1.312c.22.164.438.34.657.527.226.18.437.36.633.54l1.253-.493a.714.714 0 0 1 .457-.035.709.709 0 0 1 .399.258.68.68 0 0 1 .152.398.635.635 0 0 1-.105.422l-.715 1.16c.305.469.586.961.844 1.477l1.359-.036c.156-.015.3.02.434.106.132.078.222.2.27.363a.593.593 0 0 1 0 .434.742.742 0 0 1-.247.351l-1.055.856a9.809 9.809 0 0 1 .282 1.687l1.277.41c.36.118.539.344.539.68 0 .336-.18.563-.54.68l-1.276.41c-.024.297-.059.586-.106.867-.047.274-.105.547-.176.82l1.055.844c.117.102.2.227.246.375a.593.593 0 0 1 0 .434.637.637 0 0 1-.27.375.697.697 0 0 1-.433.094l-1.36-.047c-.132.258-.269.511-.41.761a8.1 8.1 0 0 1-.433.704l.715 1.16a.7.7 0 0 1 .105.445.68.68 0 0 1-.152.398.777.777 0 0 1-.399.27.708.708 0 0 1-.468-.047l-1.242-.515a7.383 7.383 0 0 1-.633.562c-.22.18-.438.352-.657.516l.27 1.324c.094.344-.012.605-.317.785a.73.73 0 0 1-.468.094.745.745 0 0 1-.399-.2l-1.008-.89c-.257.11-.519.21-.785.305a7.857 7.857 0 0 1-.797.257l-.21 1.36a.648.648 0 0 1-.188.41.7.7 0 0 1-.387.21.662.662 0 0 1-.445-.058.64.64 0 0 1-.305-.304l-.656-1.23c-.14.015-.281.023-.422.023-.14.007-.281.011-.422.011Zm0-1.886c1.305 0 2.516-.239 3.633-.715a9.022 9.022 0 0 0 2.93-1.992 9.13 9.13 0 0 0 1.945-2.965c.469-1.125.703-2.336.703-3.633 0-1.297-.234-2.508-.703-3.633a9.1 9.1 0 0 0-1.945-2.976 9.024 9.024 0 0 0-2.93-1.993c-1.117-.484-2.328-.726-3.633-.726-1.296 0-2.504.242-3.62.726a9.023 9.023 0 0 0-2.93 1.992 9.354 9.354 0 0 0-1.946 2.977c-.46 1.125-.691 2.336-.691 3.633 0 1.297.23 2.508.691 3.633a9.388 9.388 0 0 0 1.946 2.965 9.022 9.022 0 0 0 2.93 1.992c1.116.476 2.324.715 3.62.715Zm-2.039-11.11L9.664 6.51l1.441-.809 3.914 6.715-1.383.88Zm4.653 2.59v-1.617h7.793v1.617h-7.793Zm-3.247 1.91-4.066 6.68-1.43-.844 4.125-6.726 1.372.89Zm.61.375c-.57 0-1.086-.137-1.547-.41a3.1 3.1 0 0 1-1.101-1.102 3.014 3.014 0 0 1-.41-1.546c0-.57.136-1.086.41-1.547a3.1 3.1 0 0 1 1.101-1.102 2.91 2.91 0 0 1 1.547-.422c.562 0 1.074.14 1.535.422.469.274.84.64 1.113 1.102.282.46.422.976.422 1.547a2.95 2.95 0 0 1-.422 1.546c-.273.461-.644.829-1.113 1.102-.46.273-.973.41-1.535.41Zm0-1.758c.375 0 .687-.12.937-.363.258-.25.387-.562.387-.937s-.129-.688-.387-.938a1.252 1.252 0 0 0-.937-.387c-.367 0-.68.13-.938.387-.25.25-.375.563-.375.938s.125.687.375.937c.258.242.57.363.938.363Z"/></svg>