<svg width="21" height="18" viewBox="0 0 21 18" fill="none" xmlns="http://www.w3.org/2000/svg">
<path d="M1.85036 4.09594C2.07651 3.54998 2.40798 3.0539 2.82585 2.63603C3.24372 2.21816 3.73979 1.88669 4.28576 1.66054C4.83173 1.43439 5.4169 1.31799 6.00785 1.31799C6.5988 1.31799 7.18397 1.43439 7.72994 1.66054C8.27591 1.88669 8.77199 2.21816 9.18985 2.63603L10.5079 3.95403L11.8259 2.63603C12.6698 1.79211 13.8144 1.318 15.0079 1.318C16.2013 1.318 17.3459 1.79211 18.1898 2.63603C19.0338 3.47995 19.5079 4.62455 19.5079 5.81803C19.5079 7.01151 19.0338 8.15611 18.1898 9.00003L10.5079 16.682L2.82585 9.00003C2.40798 8.58217 2.07651 8.08609 1.85036 7.54012C1.62421 6.99415 1.50781 6.40899 1.50781 5.81803C1.50781 5.22708 1.62421 4.64191 1.85036 4.09594Z" stroke="black" stroke-width="2" stroke-linecap="round" stroke-linejoin="round"/>
</svg>
