<svg width="106" height="97" viewBox="0 0 106 97" fill="none" xmlns="http://www.w3.org/2000/svg">
<path d="M97.4122 48.4313L102.152 42.8669L100.091 41.3555L103.389 38.3329L100.847 36.4094L104.144 33.9363L102.015 32.2875L105.45 15.5255L100.229 0M100.229 0L66.7047 12.4341H38.745L5.22096 0L0 15.5255L3.50354 32.2875L1.30524 33.9363L4.67139 36.4094L2.1296 38.3329L5.42705 41.3555L3.36615 42.8669L8.10623 48.4313L0.893059 70.6891L7.55666 93.4278L30.9823 86.9703L35.5163 90.6799L44.7904 97H60.6593L69.9334 90.6799L74.4674 86.9703L97.9617 93.4278L104.694 70.6891L97.4122 48.4313" fill="#F5841F"/>
<path d="M100.229 0L59.0796 30.2953L66.7049 12.4341L100.229 0Z" fill="#E27625"/>
<path d="M5.22119 0L46.0271 30.5701L38.7453 12.4341L5.22119 0Z" fill="#E27625"/>
<path d="M85.4593 70.277L74.4678 86.9016L97.9621 93.3591L104.694 70.6205L85.4593 70.277Z" fill="#E27625"/>
<path d="M0.893066 70.6205L7.55666 93.3591L30.9823 86.9016L20.0595 70.277L0.893066 70.6205Z" fill="#E27625"/>
<path d="M29.7459 42.1112L23.2197 51.9349L46.4393 52.9653L45.6836 28.097L29.7459 42.1112Z" fill="#E27625"/>
<path d="M75.7729 42.1112L59.5605 27.8223L59.0796 52.9653L82.2991 51.9349L75.7729 42.1112Z" fill="#E27625"/>
<path d="M30.9829 86.9015L45.0658 80.1692L32.9064 70.8264L30.9829 86.9015Z" fill="#E27625"/>
<path d="M60.4536 80.1692L74.4678 86.9015L72.5443 70.8264L60.4536 80.1692Z" fill="#E27625"/>
<path d="M74.4678 86.9016L60.4536 80.1693L61.6215 89.2373L61.4841 93.0843L74.4678 86.9016Z" fill="#D7C1B3"/>
<path d="M30.9829 86.9016L44.0353 93.0843L43.9666 89.2373L45.0658 80.1693L30.9829 86.9016Z" fill="#D7C1B3"/>
<path d="M44.2406 64.7812L32.6309 61.415L40.8745 57.6367L44.2406 64.7812Z" fill="#2F343B"/>
<path d="M61.209 64.7812L64.6438 57.6367L72.8875 61.415L61.209 64.7812Z" fill="#2F343B"/>
<path d="M30.9824 86.9016L33.0433 70.277L20.0596 70.6205L30.9824 86.9016Z" fill="#CC6228"/>
<path d="M72.4751 70.277L74.4673 86.9016L85.4588 70.6205L72.4751 70.277Z" fill="#CC6228"/>
<path d="M82.2991 51.9348L59.0796 52.9653L61.2092 64.7811L64.644 57.6367L72.8877 61.415L82.2991 51.9348Z" fill="#CC6228"/>
<path d="M32.6312 61.415L40.8748 57.6367L44.241 64.7811L46.4393 52.9653L23.2197 51.9348L32.6312 61.415Z" fill="#CC6228"/>
<path d="M23.2197 51.9348L32.906 70.8265L32.6312 61.415L23.2197 51.9348Z" fill="#E27625"/>
<path d="M72.8874 61.415L72.5439 70.8265L82.2989 51.9348L72.8874 61.415Z" fill="#E27625"/>
<path d="M46.439 52.9653L44.2407 64.7812L46.9886 78.7954L47.6069 60.3846L46.439 52.9653Z" fill="#E27625"/>
<path d="M59.0795 52.9653L57.9116 60.3159L58.4612 78.7954L61.2091 64.7812L59.0795 52.9653Z" fill="#E27625"/>
<path d="M61.2093 64.7812L58.4614 78.7954L60.4536 80.1693L72.5443 70.8265L72.8878 61.415L61.2093 64.7812Z" fill="#F5841F"/>
<path d="M32.6309 61.415L32.9056 70.8265L45.065 80.1693L46.9885 78.7954L44.2406 64.7812L32.6309 61.415Z" fill="#F5841F"/>
<path d="M61.4843 93.0843L61.6217 89.2373L60.5226 88.3442H44.9284L43.9666 89.2373L44.0353 93.0843L30.9829 86.9016L35.5169 90.6112L44.791 97.0001H60.66L69.934 90.6112L74.468 86.9016L61.4843 93.0843Z" fill="#C0AD9E"/>
<path d="M60.4536 80.1692L58.4614 78.7953H46.989L45.0655 80.1692L43.9663 89.2372L44.9281 88.3442H60.5223L61.6214 89.2372L60.4536 80.1692Z" fill="#2F343B"/>
<path d="M102.015 32.2875L105.45 15.5255L100.229 0L60.4536 29.2649L75.773 42.1112L97.4125 48.4313L102.153 42.8669L100.092 41.3555L103.389 38.4016L100.847 36.4094L104.145 33.9363L102.015 32.2875Z" fill="#763E1A"/>
<path d="M0 15.5255L3.50354 32.2875L1.30524 33.9363L4.60269 36.478L2.06091 38.4016L5.35836 41.3555L3.29745 42.8669L8.10623 48.4313L29.7458 42.1112L45.0652 29.2649L5.22096 0L0 15.5255Z" fill="#763E1A"/>
<path d="M97.4122 48.4313L75.7727 42.1112L82.2989 51.9349L72.5439 70.8265L85.459 70.6204H104.694L97.4122 48.4313Z" fill="#F5841F"/>
<path d="M29.7458 42.1112L8.10624 48.4313L0.893066 70.6204H20.0595L32.9058 70.8265L23.2196 51.9349L29.7458 42.1112Z" fill="#F5841F"/>
<path d="M59.0794 52.9652L60.4533 29.2648L66.7047 12.4341H38.7451L45.0652 29.2648L46.4392 52.9652L46.9887 60.3845V78.7953H58.4611L58.5298 60.3845L59.0794 52.9652Z" fill="#F5841F"/>
</svg>
