<svg width="22" height="26" viewBox="0 0 22 26" fill="none" xmlns="http://www.w3.org/2000/svg">
<path d="M6.93638 13H15.0792M6.93638 18.3333H15.0792M17.7935 25H4.2221C3.50222 25 2.81184 24.719 2.30281 24.219C1.79378 23.7189 1.50781 23.0406 1.50781 22.3333V3.66667C1.50781 2.95942 1.79378 2.28115 2.30281 1.78105C2.81184 1.28095 3.50222 1 4.2221 1H11.8031C12.163 1.00008 12.5081 1.1406 12.7626 1.39067L20.1102 8.60933C20.3647 8.85932 20.5077 9.19841 20.5078 9.552V22.3333C20.5078 23.0406 20.2218 23.7189 19.7128 24.219C19.2038 24.719 18.5134 25 17.7935 25Z" stroke="black" stroke-width="2" stroke-linecap="round" stroke-linejoin="round"/>
</svg>
