<svg width="58" height="57" viewBox="0 0 58 57" fill="none" xmlns="http://www.w3.org/2000/svg">
<path d="M28.9089 56.8413C13.436 56.8413 0.574219 43.9796 0.574219 28.5066C0.574219 13.0058 13.4082 0.171875 28.8812 0.171875C44.3819 0.171875 57.2437 13.0058 57.2437 28.5066C57.2437 43.9796 44.4097 56.8413 28.9089 56.8413ZM28.9089 52.1189C42.0207 52.1189 52.5212 41.6183 52.5212 28.5066C52.5212 15.3948 41.9929 4.89433 28.8812 4.89433C15.7694 4.89433 5.32445 15.3948 5.32445 28.5066C5.32445 41.6183 15.7972 52.1189 28.9089 52.1189ZM16.0194 28.5066C16.0194 27.1176 16.9639 26.1454 18.3806 26.1454H26.5477V17.9783C26.5477 16.5616 27.4922 15.5893 28.8534 15.5893C30.2423 15.5893 31.2146 16.5616 31.2146 17.9783V26.1454H39.4094C40.7984 26.1454 41.7707 27.1176 41.7707 28.5066C41.7707 29.8678 40.7984 30.7845 39.4094 30.7845H31.2146V38.9793C31.2146 40.3961 30.2423 41.3405 28.8534 41.3405C27.4922 41.3405 26.5477 40.3683 26.5477 38.9793V30.7845H18.3806C16.9639 30.7845 16.0194 29.8678 16.0194 28.5066Z" fill="#474747"/>
</svg>
