<svg width="18" height="18" viewBox="0 0 18 18" fill="none" xmlns="http://www.w3.org/2000/svg">
<path d="M9 0C4.04 0 0 4.04 0 9C0 13.96 4.04 18 9 18C13.96 18 18 13.96 18 9C18 4.04 13.96 0 9 0ZM9 16.5C4.86 16.5 1.5 13.14 1.5 9C1.5 4.86 4.86 1.5 9 1.5C13.14 1.5 16.5 4.86 16.5 9C16.5 13.14 13.14 16.5 9 16.5ZM11.3 4.7C11.91 5.31 12.25 6.13 12.25 7C12.25 7.87 11.91 8.68 11.3 9.3C10.87 9.73 10.33 10.03 9.75 10.16V10.5C9.75 10.91 9.41 11.25 9 11.25C8.59 11.25 8.25 10.91 8.25 10.5V9.5C8.25 9.09 8.59 8.75 9 8.75C9.47 8.75 9.91 8.57 10.24 8.24C10.57 7.91 10.75 7.47 10.75 7C10.75 6.53 10.57 6.09 10.24 5.76C9.58 5.1 8.43 5.1 7.77 5.76C7.44 6.09 7.26 6.53 7.26 7C7.26 7.41 6.92 7.75 6.51 7.75C6.1 7.75 5.76 7.41 5.76 7C5.76 6.13 6.1 5.32 6.71 4.7C7.94 3.47 10.08 3.47 11.31 4.7H11.3ZM10 13.25C10 13.8 9.55 14.25 9 14.25C8.45 14.25 8 13.8 8 13.25C8 12.7 8.45 12.25 9 12.25C9.55 12.25 10 12.7 10 13.25Z" fill="black"/>
</svg>
