<svg width="18" height="18" viewBox="0 0 18 18" fill="none" xmlns="http://www.w3.org/2000/svg">
<path d="M2.87 17.7533C2.11 17.7533 1.39 17.4533 0.84 16.9133C-0.28 15.7933 -0.28 13.9833 0.84 12.8633L6.35 7.35327C5.85 5.41327 6.39 3.32327 7.81 1.90327C9.24 0.473268 11.34 -0.0867323 13.29 0.443268C13.55 0.513268 13.75 0.713268 13.82 0.973268C13.89 1.23327 13.82 1.50327 13.63 1.69327L11.18 4.14327L11.7 6.05327L13.61 6.57327L16.06 4.12327C16.25 3.93327 16.53 3.86327 16.78 3.93327C17.04 4.00327 17.24 4.20327 17.31 4.46327C17.84 6.41327 17.29 8.51327 15.85 9.94327C14.43 11.3633 12.34 11.9033 10.4 11.4033L4.89 16.9133C4.35 17.4533 3.63 17.7533 2.87 17.7533ZM11.43 1.77327C10.47 1.85327 9.56 2.27327 8.86 2.97327C7.72 4.11327 7.35 5.78327 7.9 7.32327C8 7.59327 7.93 7.90327 7.72 8.10327L1.89 13.9333C1.36 14.4633 1.36 15.3333 1.89 15.8633C2.15 16.1233 2.49 16.2633 2.86 16.2633C3.22 16.2633 3.57 16.1233 3.82 15.8633L9.65 10.0333C9.86 9.82327 10.16 9.76327 10.43 9.85327C11.97 10.3933 13.64 10.0333 14.78 8.89327C15.48 8.19327 15.89 7.28327 15.98 6.32327L14.35 7.95327C14.16 8.14327 13.88 8.21327 13.62 8.14327L10.88 7.39327C10.62 7.32327 10.42 7.12327 10.35 6.86327L9.6 4.12327C9.53 3.86327 9.6 3.58327 9.79 3.39327L11.42 1.76327L11.43 1.77327Z" fill="black"/>
</svg>
