<svg width="220" height="307" viewBox="0 0 220 307" fill="none" xmlns="http://www.w3.org/2000/svg">
<path d="M163.363 38.8785C164.489 41.9749 165.115 45.3131 165.144 48.8909L162.644 48.9113C162.657 50.4308 162.552 52.0052 162.32 53.6355C162.068 55.4009 161.794 57.129 161.491 58.8179L163.952 59.2589C163.301 62.892 162.518 66.3655 161.548 69.6546L159.15 68.9473C158.14 72.3708 156.931 75.5525 155.463 78.4756L157.698 79.5972C156.074 82.832 154.135 85.7969 151.801 88.4558L149.922 86.8065C147.787 89.2384 145.298 91.3969 142.374 93.2538L143.714 95.3642C140.893 97.1559 137.7 98.6799 134.081 99.9112L133.276 97.5444C130.304 98.5554 127.005 99.3676 123.338 99.9581L123.736 102.426C120.468 102.953 116.937 103.305 113.122 103.474L113.011 100.976C111.323 101.051 109.576 101.089 107.765 101.089C105.929 101.089 104.156 101.056 102.443 100.991L102.348 103.489C98.4867 103.343 94.9108 103.035 91.5986 102.568L91.948 100.092C88.203 99.5639 84.8349 98.8293 81.8029 97.8987L81.0693 100.289C77.3516 99.1475 74.0777 97.7133 71.1932 95.9901L72.4754 93.8439C69.4726 92.0501 66.9383 89.9309 64.7871 87.4897L62.9115 89.1425C60.573 86.4888 58.6492 83.4767 57.0631 80.1123L59.3244 79.0462C57.9462 76.1228 56.823 72.8864 55.9074 69.3256L53.4862 69.9482C52.6382 66.6502 51.9711 63.1173 51.4421 59.3529L53.9178 59.005C53.6781 57.2998 53.4668 55.5421 53.2799 53.7316C53.1098 52.0844 53.0537 50.4962 53.1019 48.9656L50.6032 48.8869C50.7162 45.3018 51.3628 41.9732 52.4601 38.8968L54.8148 39.7367C55.8805 36.749 57.4119 34.009 59.331 31.5097L57.3482 29.9871C59.3899 27.3281 61.827 24.9386 64.5652 22.8138L66.0978 24.7888C68.586 22.858 71.3542 21.1451 74.3294 19.652L73.2081 17.4176C76.2008 15.9158 79.3743 14.6371 82.6538 13.5776L83.4223 15.9566C86.5327 14.9518 89.7484 14.149 93.0001 13.5464L92.5446 11.0883C95.9111 10.4645 99.309 10.0501 102.667 9.84123L102.822 12.3364C104.484 12.233 106.135 12.1816 107.765 12.1816C109.39 12.1816 111.04 12.2366 112.706 12.3466L112.871 9.85198C116.22 10.0731 119.621 10.509 123 11.1582L122.528 13.6133C125.772 14.2367 128.991 15.0621 132.111 16.0864L132.89 13.7111C136.166 14.7865 139.343 16.0757 142.343 17.577L141.224 19.8127C144.216 21.3098 147.005 23.0167 149.516 24.9257L151.029 22.9356C153.808 25.049 156.283 27.412 158.355 30.0224L156.396 31.5764C158.379 34.0754 159.946 36.7948 161.014 39.7326L163.363 38.8785Z" stroke="currentColor" stroke-width="5" stroke-dasharray="10 10"/>
<path d="M53.9059 244.547C53.7642 254.564 50.0438 260.889 44.336 268.615C29.8962 281.207 40.0233 293.366 44.336 294.216C63.2611 297.947 63.7883 295.144 76.1242 290.536C81.8298 288.404 85.1068 274.768 84.6739 260.889" stroke="currentColor" stroke-width="5" stroke-dasharray="10 10"/>
<path d="M159.887 244.547C160.028 254.564 163.749 260.889 169.457 268.615C183.896 281.207 173.769 293.366 169.457 294.216C150.531 297.947 150.004 295.144 137.668 290.536C131.963 288.404 128.686 274.768 129.119 260.889" stroke="currentColor" stroke-width="5" stroke-dasharray="10 10"/>
<path d="M69.9376 10.7652C63.5609 4.84975 53.5962 5.22371 47.6808 11.6004C41.7654 17.9771 42.1393 27.9419 48.516 33.8573" stroke="currentColor" stroke-width="5" stroke-dasharray="10 10"/>
<path d="M167.983 33.5266C174.169 27.4114 174.226 17.4398 168.11 11.2544C161.995 5.06897 152.024 5.01198 145.838 11.1271" stroke="currentColor" stroke-width="5" stroke-dasharray="10 10"/>
<path d="M169.862 168.586C170.482 171.459 171.068 174.467 171.616 177.616L169.154 178.046C169.413 179.535 169.664 181.058 169.907 182.613C170.144 184.129 170.329 185.633 170.464 187.125L172.954 186.9C173.243 190.085 173.313 193.221 173.175 196.294L170.678 196.182C170.541 199.248 170.19 202.247 169.639 205.164L172.095 205.628C171.506 208.746 170.696 211.778 169.68 214.705L167.318 213.886C166.323 216.754 165.122 219.518 163.729 222.161L165.941 223.326C164.474 226.112 162.804 228.77 160.945 231.282L158.935 229.795C157.146 232.214 155.175 234.492 153.037 236.613L154.798 238.387C152.581 240.587 150.192 242.625 147.647 244.481L146.174 242.462C143.76 244.222 141.199 245.814 138.506 247.221L139.663 249.437C136.917 250.872 134.038 252.121 131.043 253.168L130.218 250.809C127.413 251.789 124.499 252.587 121.488 253.186L121.976 255.638C118.958 256.239 115.847 256.648 112.658 256.851L112.499 254.356C111.002 254.452 109.487 254.5 107.953 254.5C106.417 254.5 104.896 254.451 103.394 254.355L103.234 256.85C100.04 256.646 96.9195 256.235 93.8867 255.632L94.3745 253.18C91.3566 252.58 88.4306 251.782 85.6102 250.801L84.7892 253.162C81.7848 252.118 78.8935 250.873 76.131 249.444L77.2797 247.223C74.5701 245.822 71.9907 244.236 69.5572 242.484L68.0965 244.513C65.5305 242.666 63.119 240.639 60.8795 238.451L62.6265 236.663C60.4628 234.549 58.4669 232.279 56.6554 229.87L54.6574 231.373C52.7702 228.864 51.0745 226.209 49.5879 223.428L51.7928 222.249C50.3793 219.605 49.1628 216.84 48.1597 213.973L45.7999 214.798C44.7725 211.861 43.9599 208.82 43.3784 205.692L45.8363 205.235C45.2928 202.311 44.9592 199.306 44.8508 196.234L42.3523 196.323C42.2435 193.241 42.3526 190.096 42.6931 186.904L45.179 187.169C45.3381 185.677 45.5497 184.174 45.8154 182.66C46.087 181.113 46.3658 179.599 46.6517 178.117L44.1969 177.644C44.8005 174.515 45.4355 171.525 46.0998 168.669L48.5348 169.235C49.2595 166.119 50.0184 163.167 50.8081 160.37L48.4022 159.691C49.279 156.586 50.1947 153.665 51.145 150.918L53.5076 151.735C54.5536 148.712 55.6397 145.909 56.7595 143.312L54.4638 142.322C55.7626 139.309 57.1098 136.556 58.4971 134.041L60.6862 135.248C62.2405 132.43 63.8387 129.933 65.4662 127.72L63.4521 126.239C65.4183 123.565 67.4385 121.271 69.4926 119.302L71.2224 121.107C73.4855 118.938 75.7797 117.198 78.0746 115.8L76.7737 113.665C79.5571 111.969 82.3582 110.733 85.13 109.833L85.9021 112.211C88.7742 111.278 91.6315 110.724 94.4272 110.398L94.1373 107.914C97.3559 107.539 100.455 107.457 103.349 107.446L103.359 109.946C104.299 109.942 105.192 109.946 106.073 109.95C106.701 109.953 107.324 109.956 107.953 109.956C108.582 109.956 109.204 109.953 109.834 109.95C110.717 109.946 111.613 109.942 112.56 109.946L112.569 107.446C115.46 107.456 118.57 107.536 121.807 107.902L121.526 110.387C124.336 110.704 127.214 111.243 130.105 112.148L130.852 109.762C133.651 110.638 136.479 111.842 139.284 113.496L138.014 115.649C140.344 117.023 142.668 118.734 144.95 120.869L146.658 119.044C148.747 120.998 150.796 123.281 152.78 125.946L150.775 127.439C152.417 129.645 154.022 132.137 155.574 134.955L157.764 133.749C159.156 136.277 160.501 139.047 161.787 142.082L159.486 143.058C160.589 145.661 161.653 148.473 162.669 151.51L165.04 150.716C165.965 153.481 166.849 156.422 167.687 159.55L165.272 160.197C166.025 163.008 166.742 165.977 167.418 169.113L169.862 168.586Z" stroke="currentColor" stroke-width="5" stroke-dasharray="10 10"/>
<path d="M57.0306 124.586C42.7104 135.652 12.2475 164.163 4.95718 189.678C-2.33312 215.194 15.5888 221.356 25.4611 221.248C32.4042 220.922 44.7282 214.153 38.4794 189.678" stroke="currentColor" stroke-width="5" stroke-dasharray="9 9"/>
<path d="M157.333 123.449C172.501 133.321 205.168 159.276 214.497 184.119C223.825 208.963 206.46 216.553 196.611 217.243C189.665 217.479 173.933 212.69 178.183 187.79" stroke="currentColor" stroke-width="5" stroke-dasharray="9 9"/>
</svg>
