<svg width="277" height="202" viewBox="0 0 277 202" fill="none" xmlns="http://www.w3.org/2000/svg">
<path d="M245.933 104.909C241.907 133.146 234.892 156.553 219.079 172.949C203.342 189.268 178.455 199.07 137.675 199.07C96.7803 199.07 71.5493 190.791 55.6835 175.264C39.783 159.703 32.7804 136.38 29.5411 105.005C26.6265 76.7761 40.3378 56.0942 61.5082 42.3161C82.7748 28.4753 111.441 21.7334 137.675 21.7334C163.88 21.7334 193.087 28.9682 214.651 43.0711C236.143 57.127 249.8 77.7843 245.933 104.909Z" stroke="currentColor" stroke-width="5"/>
<path d="M64.2263 21.338C51.8449 9.85232 32.4967 10.5784 21.011 22.9599C9.52525 35.3413 10.2514 54.6894 22.6328 66.1752" stroke="currentColor" stroke-width="5"/>
<path d="M254.598 65.5326C266.608 53.6591 266.718 34.2976 254.845 22.2876C242.971 10.2776 223.61 10.1669 211.6 22.0404" stroke="currentColor" stroke-width="5"/>
</svg>
